{"title":"The Hunger Games: Mockingjay - Part 1 2014.1080p.BluRay.5.1.x264","uid":12160375,"size":2792145508,"categoryP":"video","categoryS":"hd___movies","magnet":"?xt=urn:btih:6efdb9d4090fffe131b6a10ef5ca6288e7ce8ae3&amp;dn=The+Hunger+Games%3A+Mockingjay+-+Part+1+2014.1080p.BluRay.5.1.x264&amp;tr=udp%3A%2F%2Ftracker.openbittorrent.com%3A80&amp;tr=udp%3A%2F%2Fopen.demonii.com%3A1337&amp;tr=udp%3A%2F%2Ftracker.coppersurfer.tk%3A6969&amp;tr=udp%3A%2F%2Fexodus.desync.com%3A6969","seeders":28,"leechers":4,"uploader":".NVEE","files":4,"time":1437894430,"description":"Quick note : \nIf you require a torrent release I have posted in the past, not seeding,... \nPlease do not hesitate to inform me in any means you find fit to do so. \nTorrent requests also &quot;Always Welcome.&quot; \n\n \nFULL_INFOs \n\n99.99% &gt;&gt;&gt; SYNCED GUARANTEED \n\n&quot;Totally scrutinized / analyzed to be a verified torrent.&quot; \n___________________________________________ \n\nSource : Blu-ray ~ 1080p \n\n \n\nSpoken Language : English \n\nAudio : 6 ~ Channels Only \n\n \nSubs Info : \n\nx3 ~ Multisubs .srt \nAll .srt UTF-8 .idx &amp; .ass subs can be turned On/Off \n_____________________________________ \n--------------------------------------------------------------------------------- \n \nGeneral Metadata \n\nComplete name : The Hunger Games: Mockingjay - Part 1 2014.1080p.BluRay.5.1.x264 . NVEE.mp4 \nFormat : MPEG-4 \nFormat profile : Base Media \nCodec ID : isom \nFile size : 2.60 GiB \nDuration : 2h 2mn \nOverall bit rate : 3 030 Kbps \nEncoded date : UTC 2015-04-27 20:27:15 \nTagged date : UTC 2015-04-27 20:27:15 \n\n \nVideo \n\nID : 1 \nFormat : AVC \nFormat/Info : Advanced Video Codec \nFormat profile : High@L5 \nFormat settings, CABAC : Yes \nFormat settings, ReFrames : 5 frames \nCodec ID : avc1 \nCodec ID/Info : Advanced Video Coding \nDuration : 2h 2mn \nBit rate : 2 388 Kbps \nMaximum bit rate : 32.5 Mbps \nWidth : 1 920 pixels \nHeight : 1 080 pixels \nDisplay aspect ratio : 16:9 \nFrame rate mode : Constant \nFrame rate : 23.976 fps \nColor space : YUV \nChroma subsampling : 4:2:0 \nBit depth : 8 bits \nScan type : Progressive \nBits/(Pixel*Frame) : 0.048 \nStream size : 2.05 GiB (79%) \nWriting library : x264 core 146 r2538 121396c \nEncoded from Physical Blu-ray / Region B \n\n \nAudio \n\nID : 2 \nFormat : AC-3 \nFormat/Info : Audio Coding 3 \nMode extension : CM (complete main) \nFormat settings, Endianness : Big \nCodec ID : ac-3 \nDuration : 2h 2mn \nBit rate mode : Constant \nBit rate : 640 Kbps \nChannel(s) : 6 channels \nChannel positions : Front: L C R, Side: L R, LFE \nSampling rate : 48.0 KHz \nBit depth : 16 bits \nCompression mode : Lossy \nStream size : 562 MiB (21%) \nLanguage : English \nEncoded date : UTC 2015-04-27 20:38:08 \nTagged date : UTC 2015-04-27 20:38:37 \nEncoded from Physical Blu-ray 6 Channel audio &quot;Always&quot;. \n\n \n\n \n\n \n\n\n\n\nEnj0y !","torrent":{"xt":"urn:btih:6efdb9d4090fffe131b6a10ef5ca6288e7ce8ae3","amp;dn":"The+Hunger+Games%3A+Mockingjay+-+Part+1+2014.1080p.BluRay.5.1.x264","amp;tr":["udp%3A%2F%2Ftracker.openbittorrent.com%3A80","udp%3A%2F%2Fopen.demonii.com%3A1337","udp%3A%2F%2Ftracker.coppersurfer.tk%3A6969","udp%3A%2F%2Fexodus.desync.com%3A6969"],"infoHash":"6efdb9d4090fffe131b6a10ef5ca6288e7ce8ae3","infoHashBuffer":{"type":"Buffer","data":[110,253,185,212,9,15,255,225,49,182,161,14,245,202,98,136,231,206,138,227]},"announce":[],"urlList":[]}}